<?xml version="1.0" standalone="no"?>
<!DOCTYPE svg PUBLIC "-//W3C//DTD SVG 20010904//EN"
 "http://www.w3.org/TR/2001/REC-SVG-20010904/DTD/svg10.dtd">
<svg version="1.0" xmlns="http://www.w3.org/2000/svg"
 width="1780.000000pt" height="1780.000000pt" viewBox="0 0 1780.000000 1780.000000"
 preserveAspectRatio="xMidYMid meet">
<metadata>
Created by potrace 1.14, written by Peter Selinger 2001-2017
</metadata>
<g transform="translate(0.000000,1780.000000) scale(0.100000,-0.100000)"
fill="#000000" stroke="none">
<path d="M12423 17708 c-50 -85 -76 -172 -76 -263 -1 -145 23 -206 144 -356
47 -57 116 -144 154 -194 38 -49 73 -94 78 -100 294 -378 626 -926 817 -1350
58 -127 172 -442 186 -510 1 -5 7 -30 14 -55 13 -47 18 -68 26 -110 3 -14 9
-41 14 -60 4 -19 11 -62 15 -95 4 -32 9 -68 11 -80 24 -106 23 -1149 0 -1380
-2 -16 -6 -66 -10 -110 -4 -44 -11 -105 -16 -135 -5 -30 -11 -75 -14 -100 -25
-198 -110 -487 -193 -655 -83 -166 -246 -353 -383 -437 -220 -136 -392 -110
-525 77 -52 73 -94 156 -128 255 -29 82 -73 259 -82 330 -3 25 -10 69 -15 99
-5 29 -8 56 -6 60 2 3 7 60 11 126 3 66 8 131 10 145 2 14 7 75 11 135 3 61 8
126 9 145 1 19 6 82 9 140 4 58 9 121 11 140 2 19 7 80 10 135 4 55 8 120 10
145 28 349 27 371 -15 448 -65 121 -164 167 -297 138 -50 -11 -151 -63 -203
-105 -118 -96 -142 -146 -264 -546 -40 -132 -101 -325 -136 -430 -58 -177 -90
-309 -104 -430 -4 -27 -9 -66 -11 -85 -27 -211 -22 -687 10 -937 3 -24 7 -64
10 -90 10 -85 31 -224 45 -308 6 -33 13 -73 15 -90 3 -16 19 -95 35 -175 17
-80 33 -156 36 -170 53 -264 214 -776 341 -1085 146 -354 164 -420 166 -592 3
-286 -66 -570 -211 -863 -221 -450 -651 -912 -1094 -1177 -309 -184 -608 -299
-1113 -428 -181 -46 -362 -88 -470 -109 -16 -4 -41 -9 -55 -11 -51 -10 -142
-25 -245 -40 -22 -4 -47 -8 -55 -10 -8 -2 -46 -7 -85 -10 -38 -4 -77 -8 -85
-10 -8 -2 -53 -7 -100 -10 -47 -4 -101 -8 -120 -10 -204 -22 -754 -21 -970 0
-25 2 -79 7 -120 10 -41 4 -86 8 -100 10 -14 2 -47 6 -75 10 -96 11 -201 25
-230 31 -11 2 -36 6 -55 9 -19 3 -46 7 -60 10 -14 3 -52 10 -85 15 -33 6 -98
19 -145 30 -47 10 -96 21 -110 24 -89 16 -453 122 -545 158 -27 11 -57 21 -66
23 -29 6 -322 126 -456 187 -527 239 -1069 591 -1507 979 -23 20 -115 101
-206 180 -355 311 -564 542 -792 874 -64 94 -248 390 -248 400 0 2 -16 32 -36
67 -140 246 -350 709 -475 1051 -63 170 -200 589 -254 777 -77 265 -213 812
-207 833 1 4 -2 7 -6 7 -9 0 -39 -144 -78 -365 -3 -16 -8 -46 -10 -65 -3 -19
-7 -46 -9 -60 -1 -14 -6 -41 -9 -60 -4 -19 -8 -55 -11 -80 -2 -25 -7 -70 -10
-100 -3 -30 -8 -73 -10 -95 -27 -251 -27 -988 0 -1157 2 -13 6 -54 10 -91 3
-37 8 -76 10 -85 1 -9 6 -42 9 -72 4 -30 8 -66 11 -80 2 -14 6 -43 10 -65 5
-40 14 -92 22 -130 2 -11 6 -36 9 -55 15 -94 80 -378 118 -520 44 -158 140
-457 189 -580 14 -36 36 -94 50 -130 92 -235 200 -460 312 -648 223 -376 525
-797 760 -1061 232 -261 486 -516 705 -707 25 -21 50 -43 56 -49 6 -5 33 -28
60 -50 26 -22 80 -67 119 -101 109 -94 221 -183 330 -265 55 -40 102 -76 105
-80 12 -13 366 -243 465 -301 533 -313 1065 -526 1655 -664 124 -28 357 -74
460 -89 14 -2 43 -6 65 -9 40 -6 60 -9 170 -21 33 -4 67 -9 76 -10 8 -2 55 -6
105 -10 49 -4 105 -9 124 -10 69 -7 377 -18 505 -18 128 0 458 11 512 18 15 1
69 6 118 10 150 12 265 23 305 30 14 3 48 7 75 10 28 4 106 16 175 27 69 11
137 22 151 24 14 2 66 12 115 23 49 11 105 23 124 26 19 3 42 8 50 10 8 2 29
7 45 9 61 11 395 96 549 141 246 71 546 174 701 240 17 7 84 35 150 63 204 85
579 272 725 362 8 5 76 46 150 91 124 76 182 115 343 226 293 203 663 531 917
813 41 45 80 88 85 94 33 35 163 196 231 286 323 424 587 903 773 1404 64 170
161 475 186 581 2 11 20 85 40 165 19 80 37 156 39 170 3 14 7 39 11 55 3 17
10 50 15 75 5 25 19 99 29 165 27 163 29 178 41 275 6 47 13 96 15 110 10 66
45 390 60 560 6 76 15 222 21 335 5 111 5 610 0 725 -7 164 -24 415 -31 460
-2 14 -6 59 -10 101 -3 42 -7 85 -9 95 -2 11 -7 46 -10 79 -4 33 -9 71 -11 85
-2 14 -6 48 -10 75 -3 28 -8 64 -11 80 -2 17 -6 44 -8 60 -9 59 -17 110 -21
131 -3 12 -7 39 -11 60 -13 89 -85 438 -114 559 -18 72 -33 139 -36 149 -9 47
-98 372 -130 476 -256 835 -571 1573 -1012 2370 -41 74 -89 160 -107 190 -186
314 -326 537 -468 750 -94 140 -369 527 -404 568 l-28 33 -32 -53z"/>
<path d="M11939 16628 c-4 -9 -3 -621 1 -626 3 -4 41 -37 85 -72 302 -245 648
-645 812 -940 115 -207 224 -446 297 -650 21 -58 42 -114 47 -125 33 -77 145
-521 164 -650 3 -21 13 -92 20 -135 2 -14 7 -52 10 -85 4 -33 8 -71 10 -85 11
-75 19 -251 19 -447 1 -122 2 -220 3 -219 3 2 62 233 67 261 3 17 18 87 42
200 4 17 13 74 30 180 2 17 7 41 9 55 3 14 7 41 9 60 13 109 19 157 22 172 25
142 25 696 -1 868 -2 14 -7 45 -10 70 -9 67 -14 94 -36 220 -12 63 -23 126
-25 140 -3 14 -9 41 -14 60 -5 19 -11 46 -14 60 -17 86 -60 221 -128 405 -23
61 -109 226 -159 307 -91 146 -191 270 -324 403 -195 195 -394 337 -640 455
-148 72 -291 128 -296 118z"/>
<path d="M6948 16555 c-2 -1 -59 -5 -128 -9 -69 -3 -134 -8 -145 -10 -11 -2
-51 -7 -90 -10 -38 -4 -108 -13 -155 -21 -47 -8 -103 -17 -125 -21 -146 -21
-547 -127 -660 -173 -11 -5 -92 -37 -180 -71 -341 -132 -710 -338 -1020 -570
-694 -518 -1233 -1247 -1530 -2064 -60 -167 -133 -417 -161 -551 -2 -11 -8
-42 -14 -70 -18 -89 -20 -98 -39 -225 -11 -69 -22 -152 -26 -185 -3 -33 -8
-78 -10 -100 -15 -132 -21 -546 -10 -695 12 -174 33 -339 70 -555 22 -125 87
-380 135 -530 93 -287 257 -659 385 -873 6 -9 23 -39 40 -67 73 -126 290 -440
340 -491 5 -6 26 -30 45 -54 180 -222 426 -466 647 -641 48 -39 95 -75 103
-82 308 -247 805 -513 1225 -657 164 -56 226 -75 350 -106 17 -4 -84 63 -124
82 -72 36 -475 332 -521 383 -3 3 -25 23 -50 45 -25 21 -89 82 -144 135 -385
376 -678 793 -904 1287 -54 117 -159 384 -167 424 -2 8 -10 35 -18 60 -15 43
-64 221 -72 258 -2 9 -9 40 -15 67 -17 73 -20 86 -26 125 -3 19 -9 53 -14 75
-5 22 -12 63 -16 90 -3 28 -8 58 -9 67 -2 9 -7 48 -11 85 -3 37 -8 79 -10 93
-22 178 -22 690 1 808 1 10 6 48 10 85 3 37 8 76 10 85 1 9 6 37 9 62 3 25 8
55 10 66 2 12 7 37 10 55 6 34 12 68 20 104 3 11 11 52 20 90 27 127 106 388
163 535 388 1017 1115 1820 2091 2308 329 165 805 323 1109 368 21 3 45 7 53
9 8 2 38 7 65 11 28 3 59 8 70 10 11 3 47 7 80 9 33 3 69 7 80 10 44 9 259 19
425 19 189 -1 350 -10 495 -29 17 -2 53 -6 80 -10 28 -3 73 -10 100 -15 28 -5
67 -12 88 -15 22 -3 60 -10 85 -16 26 -6 67 -15 92 -20 142 -32 454 -126 550
-166 8 -3 20 -7 25 -8 21 -5 234 -99 325 -143 213 -103 579 -325 678 -412 55
-48 -64 101 -219 275 -337 378 -739 697 -1189 943 -127 70 -377 187 -470 221
-19 8 -48 19 -65 26 -16 8 -97 36 -180 64 -344 115 -719 190 -1080 217 -84 6
-482 13 -487 9z"/>
<path d="M6620 12842 c0 -4 -24 -8 -53 -9 -28 -1 -79 -7 -112 -13 -33 -6 -67
-12 -75 -13 -8 -2 -19 -5 -25 -8 -5 -4 -18 -5 -27 -4 -10 2 -18 -1 -18 -6 0
-6 -6 -9 -12 -8 -19 4 -158 -44 -158 -54 0 -4 -4 -6 -9 -3 -18 11 -237 -113
-324 -183 -93 -75 -267 -277 -267 -310 0 -6 -4 -11 -8 -11 -8 0 -78 -142 -73
-149 1 -2 -2 -7 -7 -10 -20 -13 -85 -242 -100 -351 -9 -71 -9 -383 0 -435 4
-22 10 -53 13 -70 3 -16 8 -41 12 -55 3 -14 6 -28 5 -32 -1 -5 3 -8 9 -8 5 0
8 -4 5 -9 -13 -20 68 -186 159 -326 151 -236 278 -417 296 -423 5 -2 9 -8 9
-14 0 -5 21 -35 48 -66 26 -31 54 -65 62 -76 8 -10 30 -34 48 -53 17 -19 32
-37 32 -39 0 -11 303 -322 374 -383 25 -22 42 -42 39 -45 -4 -3 -2 -6 3 -6 6
0 26 -15 46 -32 77 -71 201 -183 221 -201 12 -10 38 -33 57 -50 19 -18 69 -61
110 -97 41 -36 81 -71 89 -78 7 -7 52 -46 100 -85 47 -40 88 -74 91 -77 5 -6
104 -88 149 -125 13 -11 32 -27 41 -35 8 -8 32 -27 52 -42 20 -15 42 -33 50
-40 7 -7 36 -31 63 -53 28 -22 56 -45 63 -52 7 -7 33 -27 57 -44 25 -18 45
-36 45 -41 0 -4 6 -8 14 -8 8 0 21 -8 28 -17 7 -10 29 -29 48 -43 40 -28 55
-39 79 -60 9 -9 38 -31 64 -49 26 -19 47 -37 47 -40 0 -3 18 -17 40 -31 22
-13 40 -28 40 -32 0 -4 5 -8 11 -8 6 0 17 -7 25 -15 12 -12 20 -13 37 -3 12 6
24 14 27 17 3 4 32 24 65 46 33 22 62 43 65 46 3 3 25 19 49 35 96 63 136 92
161 114 9 8 24 20 32 25 41 27 77 53 119 85 25 19 58 44 73 55 16 11 33 25 40
30 6 6 38 31 72 56 33 25 69 53 80 62 10 9 80 65 154 124 74 59 146 118 160
130 14 11 56 47 95 80 38 32 79 67 91 78 12 11 47 43 79 70 32 28 72 64 90 80
18 17 70 64 116 105 220 200 548 529 719 720 36 40 76 85 90 99 33 35 158 194
201 256 19 28 37 52 42 53 4 2 7 10 7 18 0 8 5 14 11 14 5 0 8 4 4 9 -3 6 3
14 12 20 10 6 14 11 10 11 -5 0 0 12 11 28 10 15 24 42 31 60 8 17 18 32 24
32 6 0 8 3 4 6 -3 4 0 19 9 35 8 16 15 32 15 36 1 5 6 19 11 33 12 31 47 165
54 205 2 17 7 97 10 179 5 120 4 150 -7 157 -11 7 -11 9 -1 9 7 0 11 4 8 8 -3
5 -8 31 -12 58 -7 55 -11 75 -20 119 -4 17 -8 37 -9 45 -1 8 -5 22 -7 30 -3 8
-16 49 -29 90 -12 41 -26 80 -29 85 -4 6 -12 29 -20 53 -7 23 -17 42 -22 42
-4 0 -8 6 -8 14 0 16 -75 151 -100 181 -10 11 -19 25 -21 31 -16 48 -234 266
-326 326 -90 59 -203 121 -203 111 0 -5 -4 -3 -8 3 -6 9 -114 53 -147 61 -5 1
-19 4 -30 7 -11 3 -51 12 -90 21 -38 8 -88 19 -110 24 -42 10 -407 8 -465 -2
-19 -4 -60 -12 -90 -18 -30 -7 -61 -12 -67 -12 -7 0 -13 -3 -13 -7 0 -3 -8 -7
-17 -8 -23 -2 -43 -7 -68 -16 -11 -5 -33 -13 -50 -18 -39 -14 -207 -91 -220
-100 -24 -19 -118 -78 -122 -78 -11 0 -118 -94 -178 -155 -79 -80 -102 -108
-151 -180 -77 -113 -109 -172 -159 -288 l-28 -68 -30 77 c-35 90 -91 193 -156
284 -50 72 -197 223 -251 260 -19 14 -40 29 -47 35 -36 30 -43 35 -49 35 -4 0
-15 6 -23 14 -26 22 -230 122 -296 144 -16 6 -39 13 -50 18 -11 4 -29 9 -40
11 -11 2 -27 6 -35 10 -8 3 -21 5 -27 4 -7 -1 -13 2 -13 6 0 5 -8 9 -17 10
-10 1 -30 4 -45 7 -76 16 -110 21 -215 30 -29 2 -57 7 -63 11 -5 3 -10 2 -10
-4 0 -6 -6 -8 -13 -5 -23 8 -88 11 -93 3 -3 -5 -16 -4 -29 1 -14 5 -25 6 -25
2z"/>
<path d="M3790 3005 c0 -512 1 -545 18 -546 25 -1 125 -1 138 0 8 1 11 67 12
224 0 122 1 231 1 242 1 19 8 20 111 20 l110 0 1 -25 c0 -14 1 -124 2 -244 l2
-219 68 1 c37 0 74 1 82 1 13 1 15 68 15 545 l0 544 -83 0 -84 0 0 -194 c0
-107 -3 -197 -6 -200 -7 -8 -207 -7 -215 0 -3 3 -5 92 -6 198 l-1 193 -82 3
-83 3 0 -546z"/>
<path d="M4492 3004 l0 -544 31 -1 c144 -3 409 0 413 4 8 8 8 186 0 194 -3 3
-67 6 -141 6 l-135 -1 0 139 c0 104 3 139 13 140 6 0 65 1 130 1 l117 0 0 104
0 104 -102 -1 c-57 0 -115 0 -130 0 l-28 1 0 95 0 95 28 1 c15 1 78 1 140 1
108 0 112 1 113 22 1 26 1 168 0 178 -1 4 -102 7 -225 7 l-224 -1 0 -544z"/>
<path d="M5206 3532 c-6 -19 -153 -735 -171 -829 -3 -16 -12 -59 -21 -98 -9
-38 -18 -81 -20 -95 -3 -14 -7 -31 -9 -37 -3 -8 5 -13 18 -14 12 0 48 -1 80
-2 32 -1 62 3 66 8 4 6 16 56 26 111 l18 102 106 -2 106 -1 6 -35 c4 -19 9
-48 12 -65 3 -16 8 -49 12 -72 6 -41 8 -43 43 -44 66 -2 134 0 138 3 1 2 -1
21 -7 43 -5 22 -12 56 -15 75 -3 19 -9 51 -14 70 -5 19 -12 49 -14 65 -3 17
-8 39 -10 50 -33 159 -66 315 -70 335 -2 14 -12 61 -21 105 -9 44 -19 89 -21
100 -2 11 -6 31 -9 45 -3 14 -8 39 -11 55 -3 17 -11 55 -18 85 l-13 55 -91 2
c-77 1 -92 -1 -96 -15z m102 -339 c3 -35 10 -71 15 -81 3 -4 8 -32 12 -62 4
-30 8 -57 10 -60 2 -3 6 -25 10 -50 4 -25 9 -48 11 -52 3 -5 -1 -8 -8 -9 -16
-1 -110 -1 -122 0 -4 1 -5 13 -1 29 4 15 13 59 20 97 7 39 15 79 18 90 3 11 8
44 12 73 7 56 19 69 23 25z"/>
<path d="M5688 3537 c-4 -10 -3 -1064 1 -1077 1 -4 393 -4 434 -1 4 1 7 46 7
101 0 55 -3 100 -7 101 -5 0 -67 1 -140 2 l-132 0 0 411 c0 226 0 426 0 443
l-1 32 -79 0 c-52 0 -81 -5 -83 -12z"/>
<path d="M6144 3447 l1 -102 75 -2 c41 0 85 -2 97 -2 l23 -1 2 -441 3 -442 50
1 c28 0 64 0 82 1 l31 1 0 393 c1 215 1 415 1 442 l1 50 78 -3 c123 -4 118 -8
116 100 -1 51 -2 96 -3 100 0 4 -126 7 -280 7 l-279 -1 2 -101z"/>
<path d="M6772 3004 l1 -544 28 -1 c16 0 45 -1 64 -1 84 0 75 -27 75 242 0
132 3 240 8 241 10 1 195 1 207 0 7 -1 10 -87 10 -241 0 -207 2 -240 15 -241
58 -3 142 -1 146 4 5 4 9 1013 5 1074 -1 16 -157 17 -163 0 -2 -6 -4 -96 -3
-199 l1 -188 -48 -1 c-27 -1 -57 -1 -68 -1 -11 0 -40 0 -65 1 l-45 1 0 200 0
200 -84 -1 -84 -1 0 -544z"/>
<path d="M7896 3542 c-4 -8 -13 -49 -22 -97 -2 -16 -7 -37 -9 -45 -3 -8 -7
-33 -10 -55 -4 -22 -8 -48 -11 -57 -3 -9 -7 -25 -9 -35 -2 -10 -17 -85 -34
-168 -56 -270 -83 -400 -87 -420 -2 -11 -12 -60 -23 -110 -11 -49 -18 -91 -16
-93 6 -7 156 -4 163 2 3 4 7 14 8 24 2 9 8 44 14 77 15 79 18 99 19 106 1 3
48 6 106 6 115 0 108 4 120 -72 12 -75 28 -145 34 -146 8 -1 121 -1 149 0 13
1 21 5 18 9 -3 5 -8 24 -11 43 -3 19 -21 106 -40 194 -19 88 -36 174 -39 190
-3 17 -8 39 -10 50 -24 112 -78 374 -81 390 -2 11 -11 56 -20 100 -9 44 -18
85 -19 90 0 6 -5 13 -11 17 -12 9 -174 9 -179 0z m100 -358 c3 -16 7 -36 9
-44 3 -8 7 -33 10 -55 4 -22 8 -47 10 -55 9 -29 19 -95 19 -125 1 -29 1 -29
-57 -28 -32 0 -60 3 -62 5 -3 2 4 51 15 109 11 57 21 115 24 129 18 108 23
117 32 64z"/>
<path d="M8372 3005 c0 -320 4 -545 9 -546 36 -3 118 -1 130 3 12 5 14 64 14
362 0 196 3 356 6 356 3 0 59 -160 124 -356 65 -196 125 -358 132 -361 12 -5
88 -7 136 -4 16 1 17 34 17 545 l0 543 -75 1 c-64 1 -75 -2 -76 -16 0 -9 0
-147 0 -306 0 -158 -2 -287 -4 -285 -3 4 -205 599 -205 605 0 1 -47 2 -104 2
l-103 1 -1 -544z"/>
<path d="M9080 3006 c0 -513 1 -546 18 -547 120 -6 283 3 329 17 148 47 246
254 246 519 0 131 -3 160 -28 256 -34 132 -126 253 -211 279 -22 7 -110 14
-196 17 l-158 5 0 -546z m301 318 c39 -19 75 -73 97 -144 26 -87 28 -255 3
-345 -32 -115 -81 -164 -168 -170 -73 -5 -68 -26 -66 293 1 158 2 309 2 335
l1 48 53 -2 c28 -1 64 -8 78 -15z"/>
<path d="M10049 3539 c-1 -8 -2 -254 -3 -546 -1 -467 1 -533 14 -534 8 0 85
-1 171 -1 179 0 210 10 271 81 51 60 72 129 72 241 0 107 -4 131 -32 187 -18
35 -40 57 -82 83 -12 8 -11 12 7 32 46 50 64 112 64 220 0 110 -24 166 -90
213 l-43 30 -174 4 c-141 2 -174 0 -175 -10z m269 -203 c29 -10 42 -43 42
-110 0 -75 -29 -106 -99 -106 l-50 0 1 114 1 114 41 -3 c22 -1 51 -5 64 -9z
m35 -423 c47 -24 64 -106 38 -186 -16 -47 -53 -67 -124 -67 l-55 0 0 135 0
135 57 -1 c31 -1 69 -8 84 -16z"/>
<path d="M10675 3011 c0 -297 3 -542 7 -546 9 -10 426 -10 435 -1 14 14 10
188 -4 193 -7 3 -70 6 -140 6 l-128 2 0 139 0 140 128 -1 c118 -1 127 1 128
18 0 11 1 51 1 89 0 39 -1 77 -1 86 -1 12 -13 15 -58 14 -32 -1 -90 -1 -129
-1 l-71 1 0 95 -1 95 32 1 c17 0 72 1 121 1 140 -1 130 -9 130 106 l0 100
-225 1 -225 1 0 -539z"/>
<path d="M11381 3497 c-6 -28 -13 -63 -16 -77 -2 -14 -9 -45 -15 -70 -5 -25
-12 -56 -14 -70 -3 -14 -41 -202 -86 -418 -45 -216 -80 -396 -77 -399 3 -3 30
-5 59 -5 114 0 103 -6 118 75 28 161 13 145 133 143 l102 -1 20 -102 c11 -56
23 -104 26 -108 6 -5 101 -9 152 -6 20 1 21 -7 -29 231 -30 140 -45 214 -69
335 -3 11 -16 76 -31 145 -14 69 -28 134 -30 145 -2 11 -8 43 -14 70 -10 50
-15 73 -26 131 l-6 31 -92 1 -93 2 -12 -53z m110 -294 c1 -22 6 -52 19 -118 6
-27 13 -66 16 -85 3 -19 10 -53 15 -75 4 -22 9 -42 9 -45 0 -5 -130 -3 -135 2
-1 2 4 32 11 68 8 36 16 79 19 95 3 17 10 53 16 82 5 28 11 61 12 72 2 25 17
28 18 4z"/>
<path d="M11859 3508 c-3 -191 1 -734 5 -780 11 -102 57 -200 119 -248 88 -70
262 -58 333 22 28 31 64 92 69 117 3 12 7 31 10 44 2 12 8 36 12 52 7 31 12
801 6 821 -3 8 -34 12 -84 13 -69 1 -79 -1 -79 -16 -1 -10 -1 -182 -2 -383 -1
-396 -7 -445 -54 -487 -34 -31 -83 -30 -117 1 -45 42 -50 83 -52 491 -2 209
-3 383 -4 386 -1 4 -37 7 -81 8 l-80 2 -1 -43z"/>
<path d="M12477 3542 c-2 -4 -3 -50 -3 -102 l1 -95 70 -2 c39 0 84 -1 100 -2
l30 -1 -1 -440 c-1 -251 2 -440 7 -441 5 0 38 0 74 0 36 0 70 0 75 0 7 1 10
155 10 441 0 345 3 440 13 441 6 1 51 1 98 1 l86 0 -1 83 c-1 46 2 81 5 77 3
-4 33 -83 66 -177 34 -93 82 -228 108 -300 l48 -130 -1 -217 c0 -157 3 -218
12 -219 15 -1 128 -1 144 0 9 1 12 53 12 226 l0 225 34 92 c19 51 58 158 86
238 29 80 65 180 81 222 16 43 29 80 29 82 0 3 -42 5 -92 5 l-93 0 -57 -178
c-32 -98 -58 -184 -58 -190 0 -39 -23 13 -78 178 l-64 190 -369 0 c-203 0
-370 -3 -372 -7z"/>
<path d="M4888 1395 c-2 -1 -32 -6 -68 -9 -82 -9 -211 -52 -286 -97 -161 -95
-275 -271 -299 -464 -8 -59 -7 -187 1 -230 29 -162 77 -259 172 -353 97 -97
228 -158 400 -189 50 -9 285 -9 347 0 94 13 256 61 325 96 12 7 15 36 15 159
1 178 1 177 -94 113 -144 -98 -264 -137 -392 -127 -200 14 -335 129 -375 317
-6 31 -6 177 0 207 33 155 113 254 246 306 67 26 192 32 270 11 74 -19 183
-71 253 -121 26 -19 57 -34 70 -34 23 0 23 0 22 155 l0 155 -60 24 c-142 56
-252 77 -416 81 -70 2 -129 2 -131 0z"/>
<path d="M6182 1384 c-98 -17 -133 -29 -225 -77 -149 -76 -268 -229 -308 -397
-15 -59 -19 -291 -7 -352 53 -263 242 -441 533 -504 66 -14 310 -12 390 3 218
41 385 158 473 332 23 44 39 81 36 81 -2 0 0 8 5 17 26 50 39 263 21 371 -37
237 -200 427 -427 498 -134 42 -343 54 -491 28z m341 -268 c31 -15 70 -44 87
-64 39 -47 78 -132 91 -196 10 -50 14 -222 5 -261 -23 -109 -83 -210 -150
-252 -131 -83 -310 -69 -411 31 -83 83 -117 188 -114 354 3 218 76 352 221
404 78 28 197 21 271 -16z"/>
<path d="M475 1372 l-50 -3 0 -649 c0 -643 0 -650 20 -651 26 -1 270 -1 312 0
l31 1 0 416 c0 228 2 417 4 419 2 2 63 -117 137 -265 l133 -269 132 1 132 1
137 276 136 276 1 -430 0 -430 158 2 c86 1 173 2 192 2 l35 1 0 650 0 650 -55
0 c-145 1 -338 2 -365 1 -25 -1 -34 -8 -46 -33 -8 -18 -55 -109 -104 -203 -49
-93 -115 -219 -146 -278 -31 -60 -60 -109 -64 -109 -11 0 -41 55 -263 482 -35
69 -68 129 -72 133 -8 9 -295 15 -395 9z"/>
<path d="M2163 1372 l-43 -3 83 -119 c94 -137 111 -161 307 -445 l145 -210 0
-263 0 -262 50 -1 c61 -1 257 -1 303 0 l32 1 0 271 0 271 217 311 c119 172
238 342 265 380 45 62 47 67 26 67 -41 1 -241 2 -324 1 l-82 -1 -142 -231
-142 -230 -38 58 c-21 32 -88 136 -149 232 l-110 173 -178 2 c-98 0 -197 0
-220 -2z"/>
<path d="M7400 1370 l-65 -5 0 -647 0 -648 30 -1 c32 -1 264 -1 306 0 l26 1
-1 425 c-1 234 0 425 2 425 1 0 63 -123 138 -274 l135 -274 132 -1 132 -1 135
274 135 273 5 -425 5 -425 185 1 c102 1 187 1 190 1 3 1 5 293 5 651 l0 650
-65 1 c-75 1 -348 1 -370 0 -8 -1 -20 -11 -25 -24 -6 -12 -51 -98 -100 -192
-49 -93 -117 -224 -151 -290 -35 -66 -65 -120 -69 -120 -8 0 -34 47 -140 250
-146 281 -188 360 -195 368 -8 10 -282 15 -380 7z"/>
<path d="M9209 1285 c0 -49 -1 -343 -2 -652 l-2 -563 55 -1 c66 -1 220 -1 272
0 l38 1 2 423 3 422 135 -272 134 -272 131 0 132 0 133 269 c74 148 136 267
139 265 2 -3 4 -192 4 -420 l0 -415 21 -1 c35 -1 309 -1 337 0 l27 1 0 650 0
650 -27 1 c-153 4 -414 -1 -420 -7 -5 -5 -35 -61 -68 -124 -295 -566 -266
-514 -279 -487 -12 26 -162 313 -247 472 -32 61 -61 118 -64 128 -3 9 -15 17
-27 18 -11 0 -112 1 -224 2 l-202 2 -1 -90z"/>
<path d="M11067 1368 c-11 -7 -14 -812 -3 -910 22 -189 145 -323 348 -382 82
-24 110 -28 263 -31 326 -8 525 79 618 268 14 30 31 74 36 98 6 25 10 238 11
502 l0 457 -27 1 c-16 0 -102 0 -193 0 l-165 0 -1 -448 c-1 -246 -4 -459 -8
-472 -22 -90 -91 -146 -198 -159 -136 -17 -226 21 -273 113 l-30 59 -1 448
c-1 247 -4 451 -7 454 -8 8 -357 10 -370 2z"/>
<path d="M12634 1371 c-2 -2 -4 -296 -4 -653 l0 -648 25 -1 c32 -1 210 -1 278
0 l52 1 -1 445 c0 245 2 445 5 445 3 0 18 -21 34 -48 15 -26 84 -135 155 -243
70 -107 147 -226 171 -265 39 -59 118 -183 195 -301 24 -37 10 -35 239 -34 76
0 142 3 146 5 5 3 8 296 8 651 l0 645 -26 1 c-29 1 -313 1 -321 0 -3 -1 -5
-163 -5 -361 0 -198 -3 -360 -6 -360 -6 0 -236 346 -249 374 -4 10 -218 336
-225 344 -5 5 -466 8 -471 3z"/>
<path d="M14698 1372 l-27 -3 0 -120 c1 -65 5 -120 10 -120 5 -1 104 -2 219
-3 147 -1 213 -4 218 -13 4 -6 7 -244 6 -530 l-1 -518 161 2 c89 1 175 2 193
2 l32 1 -2 525 c-1 344 1 525 8 526 6 1 107 2 225 3 l215 1 2 100 c1 55 2 102
2 104 2 7 111 -149 111 -158 0 -5 4 -11 8 -13 7 -3 186 -258 335 -479 l58 -85
1 -262 c0 -235 2 -262 17 -263 27 -1 304 -1 337 0 l31 1 0 271 0 270 59 85
c32 47 100 144 151 217 51 73 113 164 140 202 26 39 51 75 56 80 26 32 116
169 113 172 -2 3 -95 5 -206 5 -159 0 -204 -2 -214 -13 -7 -8 -64 -97 -126
-199 -62 -102 -123 -200 -135 -217 l-22 -33 -68 108 c-201 315 -227 352 -249
353 -80 2 -1637 3 -1658 1z"/>
<path d="M14248 1352 c-14 -3 -16 -66 -16 -643 0 -587 1 -639 16 -640 26 -1
266 -1 278 0 8 1 11 187 11 641 l0 640 -36 1 c-121 3 -239 4 -253 1z"/>
</g>
</svg>
